:FULLY-SPECIFIED
:FORCE-ALL-JOINTS-BE-3DOF
:DEGREES
1529
root -5.6688 15.3463 19.6311 -171.973 -10.8324 178.021
lfemur -40.9351 9.4932 -24.2747
ltibia 78.2844 -0 0
lfoot -11.9855 19.2999 0.0598529
ltoes -28.5969 0 0
rfemur -47.2868 -4.4045 15.8419
rtibia 72.9353 -0 0
rfoot -17.5104 -8.17172 -0.060924
rtoes -20.3401 0 0
lowerback 19.0655 0.631111 0.829387
upperback -1.17658 1.49766 2.74627
thorax -11.9399 0.798949 2.10161
lowerneck -4.06712 5.75309 1.68372
upperneck 4.20181 8.22033 -8.16884
head 2.60005 3.98125 -2.3808
lclavicle -1.19271e-15 -4.77083e-15 0
lhumerus 35.1656 -60.1421 63.5216
lradius 106.198 -0 0
lwrist 17.011 0 0
lhand -23.0839 39.1743 0.00103224
lfingers 7.12502 -0 0
lthumb 3.36215 69.1277 0.00099671
rclavicle -1.19271e-15 -4.77083e-15 0
rhumerus -38.7474 45.7244 -81.8618
rradius 112.692 -0 0
rwrist -41.0225 0 0
rhand 6.33139 -30.5997 0.114119
rfingers 7.12502 -0 0
rthumb 31.6334 -57.8317 0.124934
1530
root -5.73234 15.3521 19.6552 -171.885 -13.1458 177.684
lfemur -40.2956 9.56425 -24.1616
ltibia 77.3266 -0 0
lfoot -12.1678 19.1859 0.0631189
ltoes -29.0035 0 0
rfemur -47.5131 -4.78331 15.8149
rtibia 73.5843 -0 0
rfoot -17.3438 -8.29873 -0.0642484
rtoes -19.9224 0 0
lowerback 18.9971 0.597962 0.536651
upperback -1.16654 1.3784 2.73838
thorax -11.8809 0.758814 2.29334
lowerneck -4.11235 5.46663 1.46302
upperneck 4.20086 7.82748 -7.92153
head 2.58471 3.78617 -2.28651
lclavicle -1.19271e-15 -4.77083e-15 0
lhumerus 33.0279 -59.0831 65.1187
lradius 104.549 -0 0
lwrist 16.689 0 0
lhand -23.0862 39.0219 0.00108855
lfingers 7.12502 -0 0
lthumb 3.35988 68.9753 0.00105109
rclavicle -1.19271e-15 -4.77083e-15 0
rhumerus -39.0886 45.3156 -82.3904
rradius 113.095 -0 0
rwrist -41.1608 0 0
rhand 6.50314 -30.369 0.120348
rfingers 7.12502 -0 0
rthumb 31.7967 -57.566 0.131754
1531
root -5.79588 15.3579 19.6793 -171.781 -15.4587 177.341
lfemur -39.6558 9.63405 -24.0477
ltibia 76.3688 -0 0
lfoot -12.3501 19.0719 0.0660222
ltoes -29.4101 0 0
rfemur -47.7393 -5.16223 15.7894
rtibia 74.2332 -0 0
rfoot -17.1772 -8.42575 -0.0672036
rtoes -19.5048 0 0
lowerback 18.9289 0.564463 0.243957
upperback -1.15648 1.25915 2.73047
thorax -11.822 0.718482 2.48502
lowerneck -4.15645 5.18 1.24265
upperneck 4.19821 7.43465 -7.67444
head 2.56906 3.59111 -2.19219
lclavicle -1.19271e-15 -4.77083e-15 0
lhumerus 31.0112 -57.9956 66.5921
lradius 102.899 -0 0
lwrist 16.3669 0 0
lhand -23.0886 38.8694 0.00113861
lfingers 7.12502 -0 0
lthumb 3.35761 68.8229 0.00109942
rclavicle -1.19271e-15 -4.77083e-15 0
rhumerus -39.422 44.9045 -82.9118
rradius 113.499 -0 0
rwrist -41.2991 0 0
rhand 6.67491 -30.1382 0.125886
rfingers 7.12502 -0 0
rthumb 31.9601 -57.3004 0.137817
1532
root -5.85942 15.3637 19.7034 -171.662 -17.7709 176.989
lfemur -39.0158 9.70259 -23.933
ltibia 75.411 -0 0
lfoot -12.5324 18.9578 0.0685626
ltoes -29.8167 0 0
rfemur -47.9655 -5.54124 15.7654
rtibia 74.8821 -0 0
rfoot -17.0107 -8.55277 -0.0697894
rtoes -19.0871 0 0
lowerback 18.8608 0.530616 -0.0486965
upperback -1.14641 1.13989 2.72254
thorax -11.7633 0.677953 2.67666
lowerneck -4.19942 4.8932 1.0226
upperneck 4.19386 7.04183 -7.42754
head 2.55308 3.39608 -2.09784
lclavicle -1.19271e-15 -4.77083e-15 0
lhumerus 29.106 -56.8824 67.9509
lradius 101.25 -0 0
lwrist 16.0448 0 0
lhand -23.0909 38.717 0.00118241
lfingers 7.12502 -0 0
lthumb 3.35534 68.6705 0.00114172
rclavicle -1.19271e-15 -4.77083e-15 0
rhumerus -39.7478 44.4914 -83.4261
rradius 113.903 -0 0
rwrist -41.4375 0 0
rhand 6.84671 -29.9075 0.130732
rfingers 7.12502 -0 0
rthumb 32.1234 -57.0347 0.143123
1533
root -5.92296 15.3696 19.7275 -171.526 -20.0824 176.626
lfemur -38.3754 9.76986 -23.8175
ltibia 74.4532 -0 0
lfoot -12.7147 18.8438 0.0707402
ltoes -30.2233 0 0
rfemur -48.1917 -5.92034 15.7429
rtibia 75.5311 -0 0
rfoot -16.8441 -8.67981 -0.0720059
rtoes -18.6695 0 0
lowerback 18.793 0.496423 -0.341307
upperback -1.13631 1.02063 2.71459
thorax -11.7047 0.637228 2.86826
lowerneck -4.24126 4.60624 0.802862
upperneck 4.1878 6.64903 -7.18082
head 2.53679 3.20108 -2.00345
lclavicle -1.19271e-15 -4.77083e-15 0
lhumerus 27.3035 -55.7462 69.2039
lradius 99.6 -0 0
lwrist 15.7227 0 0
lhand -23.0933 38.5646 0.00121996
lfingers 7.12502 -0 0
lthumb 3.35306 68.5181 0.00117797
rclavicle -1.19271e-15 -4.77083e-15 0
rhumerus -40.0661 44.0762 -83.9335
rradius 114.307 -0 0
rwrist -41.5758 0 0
rhand 7.01852 -29.6767 0.134885
rfingers 7.12502 -0 0
rthumb 32.2868 -56.7689 0.147671
1534
root -5.9865 15.3754 19.7516 -171.372 -22.393 176.253
lfemur -37.7349 9.83585 -23.7012
ltibia 73.4954 -0 0
lfoot -12.897 18.7298 0.0725549
ltoes -30.6299 0 0
rfemur -48.4178 -6.29953 15.7218
rtibia 76.18 -0 0
rfoot -16.6775 -8.80684 -0.073853
rtoes -18.2518 0 0
lowerback 18.7253 0.461883 -0.633876
upperback -1.12621 0.901381 2.70661
thorax -11.6462 0.596307 3.05982
lowerneck -4.28199 4.31912 0.583416
upperneck 4.18005 6.25626 -6.93424
head 2.52017 3.0061 -1.90902
lclavicle -1.19271e-15 -4.77083e-15 0
lhumerus 25.5954 -54.5892 70.359
lradius 97.9504 -0 0
lwrist 15.4007 0 0
lhand -23.0956 38.4122 0.00125125
lfingers 7.12502 -0 0
lthumb 3.35079 68.3658 0.00120818
rclavicle -1.19271e-15 -4.77083e-15 0
rhumerus -40.3771 43.6591 -84.4342
rradius 114.71 -0 0
rwrist -41.7141 0 0
rhand 7.19035 -29.4459 0.138347
rfingers 7.12502 -0 0
rthumb 32.4502 -56.5032 0.151461
1535
root -6.05004 15.3812 19.7757 -171.199 -24.7026 175.865
lfemur -37.094 9.90056 -23.5841
ltibia 72.5376 -0 0
lfoot -13.0793 18.6157 0.0740067
ltoes -31.0365 0 0
rfemur -48.644 -6.6788 15.7023
rtibia 76.829 -0 0
rfoot -16.5109 -8.93389 -0.0753308
rtoes -17.8342 0 0
lowerback 18.6578 0.426998 -0.926403
upperback -1.11608 0.782129 2.69862
thorax -11.5879 0.555191 3.25133
lowerneck -4.3216 4.03185 0.364256
upperneck 4.1706 5.86353 -6.68779
head 2.50324 2.81116 -1.81456
lclavicle -1.19271e-15 -4.77083e-15 0
lhumerus 23.9739 -53.4135 71.4239
lradius 96.3008 -0 0
lwrist 15.0786 0 0
lhand -23.098 38.2598 0.00127628
lfingers 7.12502 -0 0
lthumb 3.34852 68.2134 0.00123235
rclavicle -1.19271e-15 -4.77083e-15 0
rhumerus -40.681 43.24 -84.9283
rradius 115.114 -0 0
rwrist -41.8525 0 0
rhand 7.36219 -29.2151 0.141116
rfingers 7.12502 -0 0
rthumb 32.6136 -56.2375 0.154493
1536
root -6.11357 15.387 19.7998 -171.004 -27.011 175.462
lfemur -36.4529 9.96397 -23.4663
ltibia 71.5798 -0 0
lfoot -13.2617 18.5017 0.0750956
ltoes -31.443 0 0
rfemur -48.8703 -7.05815 15.6842
rtibia 77.4779 -0 0
rfoot -16.3443 -9.06094 -0.0764391
rtoes -17.4165 0 0
lowerback 18.5905 0.391769 -1.21889
upperback -1.10594 0.662878 2.69061
thorax -11.5297 0.51388 3.4428
lowerneck -4.36009 3.74443 0.145369
upperneck 4.15947 5.47084 -6.44145
head 2.48599 2.61624 -1.72005
lclavicle -1.19271e-15 -4.77083e-15 0
lhumerus 22.432 -52.221 72.4055
lradius 94.6512 -0 0
lwrist 14.7565 0 0
lhand -23.1003 38.1073 0.00129505
lfingers 7.12502 -0 0
lthumb 3.34625 68.061 0.00125048
rclavicle -1.19271e-15 -4.77083e-15 0
rhumerus -40.9779 42.819 -85.416
rradius 115.518 -0 0
rwrist -41.9908 0 0
rhand 7.53404 -28.9843 0.143193
rfingers 7.12502 -0 0
rthumb 32.7771 -55.9717 0.156768
1537
root -6.17711 15.3928 19.8239 -170.787 -29.3181 175.042
lfemur -35.8116 10.0261 -23.3478
ltibia 70.622 -0 0
lfoot -13.444 18.3876 0.0758215
ltoes -31.8496 0 0
rfemur -49.0966 -7.43756 15.6677
rtibia 78.1268 -0 0
rfoot -16.1777 -9.18799 -0.077178
rtoes -16.9989 0 0
lowerback 18.5233 0.356197 -1.51133
upperback -1.09579 0.543629 2.68257
thorax -11.4716 0.472375 3.63422
lowerneck -4.39747 3.45687 -0.0732553
upperneck 4.14664 5.0782 -6.19518
head 2.46842 2.42134 -1.62549
lclavicle -1.19271e-15 -4.77083e-15 0
lhumerus 20.963 -51.0134 73.3101
lradius 93.0016 -0 0
lwrist 14.4344 0 0
lhand -23.1027 37.9549 0.00130757
lfingers 7.12502 -0 0
lthumb 3.34398 67.9086 0.00126256
rclavicle -1.19271e-15 -4.77083e-15 0
rhumerus -41.2679 42.3962 -85.8975
rradius 115.921 -0 0
rwrist -42.1291 0 0
rhand 7.7059 -28.7534 0.144578
rfingers 7.12502 -0 0
rthumb 32.9405 -55.706 0.158284
1538
root -6.24065 15.3986 19.848 -170.545 -31.6238 174.601
lfemur -35.17 10.0869 -23.2285
ltibia 69.6642 -0 0
lfoot -13.6263 18.2735 0.0761844
ltoes -32.2562 0 0
rfemur -49.323 -7.81703 15.6526
rtibia 78.7758 -0 0
rfoot -16.0111 -9.31504 -0.0775474
rtoes -16.5812 0 0
lowerback 18.4563 0.320282 -1.80373
upperback -1.08561 0.424381 2.67451
thorax -11.4137 0.430676 3.8256
lowerneck -4.43374 3.16916 -0.291628
upperneck 4.13213 4.68563 -5.94897
head 2.45053 2.22648 -1.53089
lclavicle -1.19271e-15 -4.77083e-15 0
lhumerus 19.5608 -49.792 74.1435
lradius 91.3519 -0 0
lwrist 14.1124 0 0
lhand -23.105 37.8025 0.00131383
lfingers 7.12502 -0 0
lthumb 3.34171 67.7562 0.00126861
rclavicle -1.19271e-15 -4.77083e-15 0
rhumerus -41.5511 41.9716 -86.3729
rradius 116.325 -0 0
rwrist -42.2675 0 0
rhand 7.87776 -28.5226 0.14527
rfingers 7.12502 -0 0
rthumb 33.104 -55.4402 0.159042
1539
root -6.30419 15.4045 19.872 -170.275 -33.9277 174.137
lfemur -34.5281 10.1464 -23.1086
ltibia 68.7063 -0 0
lfoot -13.8086 18.1595 0.0761844
ltoes -32.6628 0 0
rfemur -49.5496 -8.19656 15.639
rtibia 79.4247 -0 0
rfoot -15.8444 -9.44209 -0.0775474
rtoes -16.1636 0 0
lowerback 18.3896 0.284026 -2.09608
upperback -1.07542 0.305135 2.66644
thorax -11.3559 0.388784 4.01694
lowerneck -4.46891 2.88132 -0.50976
upperneck 4.11594 4.29311 -5.70279
head 2.43232 2.03165 -1.43624
lclavicle -1.19271e-15 -4.77083e-15 0
lhumerus 18.22 -48.5583 74.9112
lradius 89.7024 -0 0
lwrist 13.7903 0 0
lhand -23.1074 37.6501 0.00131383
lfingers 7.12502 -0 0
lthumb 3.33943 67.6038 0.00126861
rclavicle -1.19271e-15 -4.77083e-15 0
rhumerus -41.8278 41.5454 -86.8423
rradius 116.729 -0 0
rwrist -42.4058 0 0
rhand 8.04963 -28.2918 0.14527
rfingers 7.12502 -0 0
rthumb 33.2674 -55.1745 0.159042
1540
root -6.36773 15.4103 19.8961 -169.974 -36.2296 173.646
lfemur -33.886 10.2045 -22.9879
ltibia 67.7485 -0 0
lfoot -13.991 18.0454 0.0758215
ltoes -33.0694 0 0
rfemur -49.7762 -8.57614 15.627
rtibia 80.0737 -0 0
rfoot -15.6778 -9.56914 -0.077178
rtoes -15.7459 0 0
lowerback 18.323 0.24743 -2.38839
upperback -1.06522 0.18589 2.65834
thorax -11.2983 0.346699 4.20823
lowerneck -4.50297 2.59335 -0.727663
upperneck 4.09806 3.90067 -5.45663
head 2.41379 1.83685 -1.34154
lclavicle -1.19271e-15 -4.77083e-15 0
lhumerus 16.9355 -47.3134 75.6179
lradius 88.0527 -0 0
lwrist 13.4682 0 0
lhand -23.1097 37.4977 0.00130757
lfingers 7.12502 -0 0
lthumb 3.33716 67.4514 0.00126256
rclavicle -1.19271e-15 -4.77083e-15 0
rhumerus -42.098 41.1174 -87.3059
rradius 117.133 -0 0
rwrist -42.5442 0 0
rhand 8.22149 -28.061 0.144578
rfingers 7.12502 -0 0
rthumb 33.4309 -54.9087 0.158284
1541
root -6.43127 15.4161 19.9202 -169.639 -38.5293 173.124
lfemur -33.2437 10.2613 -22.8666
ltibia 66.7907 -0 0
lfoot -14.1733 17.9313 0.0750956
ltoes -33.476 0 0
rfemur -50.003 -8.95576 15.6164
rtibia 80.7226 -0 0
rfoot -15.5112 -9.69619 -0.0764391
rtoes -15.3283 0 0
lowerback 18.2566 0.210495 -2.68066
upperback -1.05499 0.0666466 2.65022
thorax -11.2408 0.304423 4.39948
lowerneck -4.53592 2.30525 -0.945348
upperneck 4.07851 3.50831 -5.21044
head 2.39494 1.64208 -1.24678
lclavicle -1.19271e-15 -4.77083e-15 0
lhumerus 15.7025 -46.0585 76.2681
lradius 86.4031 -0 0
lwrist 13.1461 0 0
lhand -23.1121 37.3453 0.00129505
lfingers 7.12502 -0 0
lthumb 3.33489 67.299 0.00125048
rclavicle -1.19271e-15 -4.77083e-15 0
rhumerus -42.3619 40.6879 -87.7638
rradius 117.536 -0 0
rwrist -42.6825 0 0
rhand 8.39335 -27.8301 0.143193
rfingers 7.12502 -0 0
rthumb 33.5943 -54.643 0.156768
